<svg xmlns="http://www.w3.org/2000/svg" width="10" height="14" viewBox="0 0 10 14">
  <metadata><?xpacket begin="﻿" id="W5M0MpCehiHzreSzNTczkc9d"?>
<x:xmpmeta xmlns:x="adobe:ns:meta/" x:xmptk="Adobe XMP Core 5.6-c142 79.160924, 2017/07/13-01:06:39        ">
   <rdf:RDF xmlns:rdf="http://www.w3.org/1999/02/22-rdf-syntax-ns#">
      <rdf:Description rdf:about=""/>
   </rdf:RDF>
</x:xmpmeta>
                                                                                                    
                                                                                                    
                                                                                                    
                                                                                                    
                                                                                                    
                                                                                                    
                                                                                                    
                                                                                                    
                                                                                                    
                                                                                                    
                                                                                                    
                                                                                                    
                                                                                                    
                                                                                                    
                                                                                                    
                                                                                                    
                                                                                                    
                                                                                                    
                                                                                                    
                                                                                                    
                           
<?xpacket end="w"?></metadata>
<defs>
    <style>
      .cls-1 {
        fill: #00a1e5;
        fill-rule: evenodd;
      }
    </style>
  </defs>
  <path id="Forma_1" data-name="Forma 1" class="cls-1" d="M1250.88,106.033l-1.31-2.332a0.96,0.96,0,0,0-1.33-.337l-1.16.677c-0.05-.048-0.1-0.1-0.15-0.151a9.343,9.343,0,0,1-1.76-2.208,9.707,9.707,0,0,1-.99-2.664,1.822,1.822,0,0,1-.05-0.205l0.77-.454,0.38-.224a1,1,0,0,0,.39-1.344l-1.32-2.332a0.96,0.96,0,0,0-1.33-.337l-0.65.382,0.01,0.018a3.091,3.091,0,0,0-.62.638,3.921,3.921,0,0,0-.39.713c-0.77,1.947-.35,4.032,1.43,7.2,2.47,4.374,5.27,4.86,5.39,4.879a3.106,3.106,0,0,0,.8.014,2.957,2.957,0,0,0,.85-0.224l0.01,0.013,0.65-.373A1.006,1.006,0,0,0,1250.88,106.033Z" transform="translate(-1241 -94)"/>
</svg>
