<svg xmlns="http://www.w3.org/2000/svg" width="20" height="15" viewBox="0 0 20 15">
  <metadata><?xpacket begin="﻿" id="W5M0MpCehiHzreSzNTczkc9d"?>
<x:xmpmeta xmlns:x="adobe:ns:meta/" x:xmptk="Adobe XMP Core 5.6-c142 79.160924, 2017/07/13-01:06:39        ">
   <rdf:RDF xmlns:rdf="http://www.w3.org/1999/02/22-rdf-syntax-ns#">
      <rdf:Description rdf:about=""/>
   </rdf:RDF>
</x:xmpmeta>
                                                                                                    
                                                                                                    
                                                                                                    
                                                                                                    
                                                                                                    
                                                                                                    
                                                                                                    
                                                                                                    
                                                                                                    
                                                                                                    
                                                                                                    
                                                                                                    
                                                                                                    
                                                                                                    
                                                                                                    
                                                                                                    
                                                                                                    
                                                                                                    
                                                                                                    
                                                                                                    
                           
<?xpacket end="w"?></metadata>
<defs>
    <style>
      .cls-1 {
        fill: #aeaeae;
        fill-rule: evenodd;
      }
    </style>
  </defs>
  <path id="Forma_1" data-name="Forma 1" class="cls-1" d="M1370.24,5765h-12.5a3.758,3.758,0,0,0-3.75,3.75v7.5a3.758,3.758,0,0,0,3.75,3.75h12.5a3.764,3.764,0,0,0,3.75-3.75v-7.5A3.764,3.764,0,0,0,1370.24,5765Zm2.5,11.25a2.451,2.451,0,0,1-.74,1.76,2.492,2.492,0,0,1-1.76.74h-12.5a2.515,2.515,0,0,1-1.77-.74,2.482,2.482,0,0,1-.73-1.76v-7.5a2.509,2.509,0,0,1,2.5-2.5h12.5a2.527,2.527,0,0,1,2.5,2.5v7.5Zm-11.61.18,6.61-3.93-6.61-3.93v7.86Z" transform="translate(-1354 -5765)"/>
</svg>
