<svg xmlns="http://www.w3.org/2000/svg" width="17" height="17" viewBox="0 0 17 17">
  <metadata><?xpacket begin="﻿" id="W5M0MpCehiHzreSzNTczkc9d"?>
<x:xmpmeta xmlns:x="adobe:ns:meta/" x:xmptk="Adobe XMP Core 5.6-c142 79.160924, 2017/07/13-01:06:39        ">
   <rdf:RDF xmlns:rdf="http://www.w3.org/1999/02/22-rdf-syntax-ns#">
      <rdf:Description rdf:about=""/>
   </rdf:RDF>
</x:xmpmeta>
                                                                                                    
                                                                                                    
                                                                                                    
                                                                                                    
                                                                                                    
                                                                                                    
                                                                                                    
                                                                                                    
                                                                                                    
                                                                                                    
                                                                                                    
                                                                                                    
                                                                                                    
                                                                                                    
                                                                                                    
                                                                                                    
                                                                                                    
                                                                                                    
                                                                                                    
                                                                                                    
                           
<?xpacket end="w"?></metadata>
<defs>
    <style>
      .cls-1 {
        fill: #aeaeae;
        fill-rule: evenodd;
      }
    </style>
  </defs>
  <path id="Forma_1_copy" data-name="Forma 1 copy" class="cls-1" d="M1333.3,5763.99h-7.61a4.7,4.7,0,0,0-4.69,4.69v7.63a4.69,4.69,0,0,0,4.69,4.69h7.61a4.69,4.69,0,0,0,4.69-4.69v-7.63A4.7,4.7,0,0,0,1333.3,5763.99Zm3.19,12.32a3.19,3.19,0,0,1-3.19,3.18h-7.61a3.182,3.182,0,0,1-3.18-3.18v-7.63a3.182,3.182,0,0,1,3.18-3.18h7.61a3.19,3.19,0,0,1,3.19,3.18v7.63h0Zm-6.99-8.2a4.385,4.385,0,1,0,4.38,4.39A4.387,4.387,0,0,0,1329.5,5768.11Zm0,7.26a2.875,2.875,0,1,1,2.87-2.87A2.879,2.879,0,0,1,1329.5,5775.37Zm4.56-8.54a1.127,1.127,0,1,0,.78.33A1.089,1.089,0,0,0,1334.06,5766.83Z" transform="translate(-1321 -5764)"/>
</svg>
