<svg xmlns="http://www.w3.org/2000/svg" width="16.97" height="11" viewBox="0 0 16.97 11">
  <metadata><?xpacket begin="﻿" id="W5M0MpCehiHzreSzNTczkc9d"?>
<x:xmpmeta xmlns:x="adobe:ns:meta/" x:xmptk="Adobe XMP Core 5.6-c142 79.160924, 2017/07/13-01:06:39        ">
   <rdf:RDF xmlns:rdf="http://www.w3.org/1999/02/22-rdf-syntax-ns#">
      <rdf:Description rdf:about=""/>
   </rdf:RDF>
</x:xmpmeta>
                                                                                                    
                                                                                                    
                                                                                                    
                                                                                                    
                                                                                                    
                                                                                                    
                                                                                                    
                                                                                                    
                                                                                                    
                                                                                                    
                                                                                                    
                                                                                                    
                                                                                                    
                                                                                                    
                                                                                                    
                                                                                                    
                                                                                                    
                                                                                                    
                                                                                                    
                                                                                                    
                           
<?xpacket end="w"?></metadata>
<defs>
    <style>
      .cls-1 {
        fill: #aeaeae;
        fill-rule: evenodd;
      }
    </style>
  </defs>
  <path id="Forma_1_copy" data-name="Forma 1 copy" class="cls-1" d="M1289.24,5774.56a8.321,8.321,0,0,0,2.38,2.55,5.682,5.682,0,0,0,3.54.87c0.59-.03.76-0.2,0.79-0.87a3.274,3.274,0,0,1,.26-1.32,0.489,0.489,0,0,1,.82-0.23,2.737,2.737,0,0,1,.45.45c0.33,0.41.65,0.84,0.99,1.24a1.8,1.8,0,0,0,1.57.73h2.48a0.722,0.722,0,0,0,.37-1.09,5.311,5.311,0,0,0-.59-0.98,23.681,23.681,0,0,0-1.67-1.92,1.054,1.054,0,0,1-.13-1.55c0.45-.71.93-1.4,1.38-2.11a7.971,7.971,0,0,0,1.07-2.12c0.14-.51.01-0.73-0.44-0.82a1.927,1.927,0,0,0-.24-0.01l-2.69-.01a0.608,0.608,0,0,0-.63.5c-0.16.45-.32,0.9-0.51,1.34a11.257,11.257,0,0,1-1.58,2.77,0.507,0.507,0,0,1-.55.31,1.106,1.106,0,0,1-.4-0.9v-3.56a0.744,0.744,0,0,0-.6-0.83h-2.8a0.878,0.878,0,0,0-.76.43c-0.11.16-.14,0.26,0.09,0.31a1.013,1.013,0,0,1,.8.97,12.887,12.887,0,0,1,.04,2.56,2.564,2.564,0,0,1-.15.73c-0.13.37-.35,0.44-0.64,0.22a3.183,3.183,0,0,1-.62-0.78,18.476,18.476,0,0,1-1.64-3.48,0.725,0.725,0,0,0-.67-0.58c-0.81-.01-1.61-0.02-2.42,0-0.49.01-.63,0.28-0.43,0.79A36.056,36.056,0,0,0,1289.24,5774.56Z" transform="translate(-1286.03 -5767)"/>
</svg>
