<svg xmlns="http://www.w3.org/2000/svg" width="25" height="21" viewBox="0 0 25 21">
  <metadata><?xpacket begin="﻿" id="W5M0MpCehiHzreSzNTczkc9d"?>
<x:xmpmeta xmlns:x="adobe:ns:meta/" x:xmptk="Adobe XMP Core 5.6-c142 79.160924, 2017/07/13-01:06:39        ">
   <rdf:RDF xmlns:rdf="http://www.w3.org/1999/02/22-rdf-syntax-ns#">
      <rdf:Description rdf:about=""/>
   </rdf:RDF>
</x:xmpmeta>
                                                                                                    
                                                                                                    
                                                                                                    
                                                                                                    
                                                                                                    
                                                                                                    
                                                                                                    
                                                                                                    
                                                                                                    
                                                                                                    
                                                                                                    
                                                                                                    
                                                                                                    
                                                                                                    
                                                                                                    
                                                                                                    
                                                                                                    
                                                                                                    
                                                                                                    
                                                                                                    
                           
<?xpacket end="w"?></metadata>
<defs>
    <style>
      .cls-1 {
        fill: #fc6060;
        fill-rule: evenodd;
      }
    </style>
  </defs>
  <path id="Forma_1" data-name="Forma 1" class="cls-1" d="M615.856,608.834a0.976,0.976,0,0,0-1.356-.349l-3.289,1.917-0.836.494v4.589l0.779,0.465c0.028,0,.028.029,0.057,0.029l3.231,1.888a0.884,0.884,0,0,0,.548.174,0.976,0.976,0,0,0,.981-0.987v-3.892L616,609.328A0.765,0.765,0,0,0,615.856,608.834Zm-20.212-1.482A4.676,4.676,0,1,0,591,602.676,4.657,4.657,0,0,0,595.644,607.352Zm0-6.593a1.917,1.917,0,1,1-1.9,1.917A1.872,1.872,0,0,1,595.644,600.759Zm11.769,6.855a5.491,5.491,0,0,1-2.481.61,5.376,5.376,0,0,1-3-.9h-3.288a5.376,5.376,0,0,1-3,.9,5.142,5.142,0,0,1-2.481-.61,2.273,2.273,0,0,0-1.125,1.946v7.087A2.353,2.353,0,0,0,594.374,619h11.857a2.353,2.353,0,0,0,2.336-2.353V609.56A2.365,2.365,0,0,0,607.413,607.614Zm-2.481-.262a4.676,4.676,0,1,0-4.644-4.676A4.657,4.657,0,0,0,604.932,607.352Zm0-6.593a1.917,1.917,0,0,1,0,3.834,1.928,1.928,0,0,1-1.9-1.917A1.891,1.891,0,0,1,604.932,600.759Z" transform="translate(-591 -598)"/>
</svg>
