<svg xmlns="http://www.w3.org/2000/svg" width="25" height="21" viewBox="0 0 25 21">
  <metadata><?xpacket begin="﻿" id="W5M0MpCehiHzreSzNTczkc9d"?>
<x:xmpmeta xmlns:x="adobe:ns:meta/" x:xmptk="Adobe XMP Core 5.6-c142 79.160924, 2017/07/13-01:06:39        ">
   <rdf:RDF xmlns:rdf="http://www.w3.org/1999/02/22-rdf-syntax-ns#">
      <rdf:Description rdf:about=""/>
   </rdf:RDF>
</x:xmpmeta>
                                                                                                    
                                                                                                    
                                                                                                    
                                                                                                    
                                                                                                    
                                                                                                    
                                                                                                    
                                                                                                    
                                                                                                    
                                                                                                    
                                                                                                    
                                                                                                    
                                                                                                    
                                                                                                    
                                                                                                    
                                                                                                    
                                                                                                    
                                                                                                    
                                                                                                    
                                                                                                    
                           
<?xpacket end="w"?></metadata>
<defs>
    <style>
      .cls-1 {
        fill: #57a8c6;
        fill-rule: evenodd;
      }
    </style>
  </defs>
  <path id="Forma_1" data-name="Forma 1" class="cls-1" d="M1095.86,4207.83a0.986,0.986,0,0,0-1.36-.35l-3.29,1.92-0.84.5v4.59l0.78,0.46c0.03,0,.03.03,0.06,0.03l3.23,1.89a0.944,0.944,0,0,0,.55.17,0.971,0.971,0,0,0,.98-0.99v-3.89l0.03-3.83A0.81,0.81,0,0,0,1095.86,4207.83Zm-20.22-1.48a4.675,4.675,0,1,0-4.64-4.67A4.658,4.658,0,0,0,1075.64,4206.35Zm0-6.59a1.915,1.915,0,1,1-1.9,1.92A1.873,1.873,0,0,1,1075.64,4199.76Zm11.77,6.85a5.4,5.4,0,0,1-5.48-.29h-3.29a5.352,5.352,0,0,1-3,.9,5.118,5.118,0,0,1-2.48-.61,2.29,2.29,0,0,0-1.12,1.95v7.09a2.356,2.356,0,0,0,2.33,2.35h11.86a2.358,2.358,0,0,0,2.34-2.35v-7.09A2.373,2.373,0,0,0,1087.41,4206.61Zm-2.48-.26a4.675,4.675,0,1,0-4.64-4.67A4.658,4.658,0,0,0,1084.93,4206.35Zm0-6.59a1.915,1.915,0,1,1-1.9,1.92A1.885,1.885,0,0,1,1084.93,4199.76Z" transform="translate(-1071 -4197)"/>
</svg>
